<?xml version="1.0" encoding="utf-8"?>
<!-- Generator: Adobe Illustrator 19.2.1, SVG Export Plug-In . SVG Version: 6.00 Build 0)  -->
<svg version="1.1" id="圖層_1" xmlns="http://www.w3.org/2000/svg" xmlns:xlink="http://www.w3.org/1999/xlink" x="0px" y="0px"
	 viewBox="0 0 120 31.1" style="enable-background:new 0 0 120 31.1;" xml:space="preserve">
<style type="text/css">
	.st0{fill:#47422C;}
</style>
<g>
	<path class="st0" d="M16.8,4.5C17.3,5.6,18,6.7,19,7.8c1.2,1.3,2.5,2.4,3.8,3c0.7,0.3,1.4,0.5,1.9,0.5c0.5,0,1-0.1,1.3-0.4
		c0.7-0.6,0.8-1.7,0.3-3.2c-0.4-1.3-1.4-2.8-2.5-4.1c-1.2-1.3-2.5-2.4-3.8-3c-1.4-0.7-2.5-0.7-3.2-0.1c-0.6,0.6-0.8,1.6-0.4,2.9
		L3.2,16.4c-2.5,2.5-2.9,5.1-1.2,8.1c0,0,0,0,0,0L4.2,28c0.1,0.1,0.3,0.2,0.4,0.2c0.1,0,0.2,0,0.3-0.1C5.1,28,5.2,27.7,5,27.4
		L2.9,24c-1.5-2.6-1.1-4.7,1.1-6.9L16.8,4.5z M17.3,1.2C17.5,1,17.7,1,18,1c0.4,0,0.9,0.1,1.5,0.4c1.2,0.5,2.4,1.5,3.5,2.8
		c1.1,1.3,2,2.6,2.4,3.8c0.4,1.1,0.3,1.9-0.1,2.2c-0.4,0.4-1.2,0.3-2.2-0.2c-1.2-0.5-2.4-1.5-3.5-2.8c-1.1-1.3-2-2.6-2.4-3.8
		C16.9,2.4,16.9,1.5,17.3,1.2z"/>
	<path class="st0" d="M29.6,6.6c-1.4-0.8-2.2-0.6-2.5-0.3c-0.4,0.3-0.7,1-0.1,2.6c0.4,1.1,1.1,2.3,2.1,3.4c0.1,0.2,0.3,0.4,0.5,0.5
		L20,22.1c-1.8,1.8-2.1,3.8-0.9,6c0,0,0,0,0,0l1.6,2.5c0.1,0.1,0.3,0.2,0.4,0.2c0.1,0,0.2,0,0.3-0.1c0.2-0.1,0.3-0.4,0.2-0.7
		L20,27.6c-1-1.8-0.8-3.3,0.7-4.8l9.5-9.3c1.2,1.2,2.6,2.1,3.6,2.1c0.3,0,0.6-0.1,0.8-0.3c1.2-1-0.1-3.7-2-6
		C31.6,8.1,30.6,7.2,29.6,6.6z M34,14.6c-0.4,0.4-2.4-0.6-4.3-2.9c-0.9-1.1-1.6-2.2-2-3.2c-0.3-0.9-0.3-1.4-0.1-1.6
		c0.1,0,0.1-0.1,0.3-0.1c0.3,0,0.7,0.1,1.3,0.5C30,7.9,31,8.8,31.9,9.8C33.8,12.1,34.4,14.2,34,14.6z"/>
	<g>
		<path class="st0" d="M44.2,16V9.1c0-0.5,0.2-0.8,0.7-0.8c0.4,0,0.7,0.3,0.7,0.8v6.7h4.1c0.5,0,0.8,0.2,0.8,0.7
			c0,0.4-0.3,0.7-0.8,0.7h-4.4C44.6,17.1,44.2,16.8,44.2,16z"/>
		<path class="st0" d="M67,9.6c0.8,0.9,1.3,2,1.3,3.3c0,1.2-0.4,2.3-1.3,3.2c-0.7,0.8-1.7,1.2-2.8,1.2c-1.1,0-2.1-0.4-2.8-1.2
			c-0.8-0.9-1.2-2-1.2-3.2c0-1.3,0.4-2.4,1.2-3.3c0.7-0.8,1.7-1.2,2.8-1.2C65.3,8.4,66.3,8.8,67,9.6z M66,15.2
			c0.6-0.7,0.9-1.5,0.9-2.3c0-0.9-0.3-1.7-0.9-2.3c-0.5-0.5-1.1-0.8-1.8-0.8c-0.8,0-1.4,0.3-1.8,0.8c-0.6,0.7-0.9,1.5-0.9,2.4
			c0,0.9,0.3,1.7,0.9,2.3c0.5,0.5,1.1,0.8,1.8,0.8C64.9,15.9,65.6,15.7,66,15.2z"/>
		<path class="st0" d="M84.8,9.1v7.5c0,0.5-0.2,0.8-0.7,0.8c-0.4,0-0.7-0.3-0.7-0.8v-3h-3.8v3c0,0.5-0.2,0.8-0.7,0.8
			c-0.4,0-0.7-0.3-0.7-0.8V9.1c0-0.5,0.2-0.8,0.7-0.8c0.4,0,0.7,0.3,0.7,0.8v3.1h3.8V9.1c0-0.5,0.2-0.8,0.7-0.8
			C84.6,8.3,84.8,8.6,84.8,9.1z"/>
		<path class="st0" d="M99.3,8.9l3,7.5c0.1,0.3,0.1,0.5,0,0.7c-0.1,0.1-0.2,0.2-0.4,0.3c-0.2,0-0.3,0-0.5-0.1
			c-0.2-0.1-0.3-0.3-0.4-0.6l-0.6-1.7h-3.7l-0.7,1.7c-0.1,0.3-0.2,0.5-0.4,0.6c-0.2,0.1-0.3,0.1-0.5,0.1c-0.2-0.1-0.3-0.2-0.4-0.3
			c-0.1-0.2-0.1-0.4,0-0.7L98,8.9c0-0.1,0.1-0.2,0.2-0.3c0.1-0.1,0.3-0.2,0.4-0.2c0.2,0,0.3,0.1,0.5,0.2C99.2,8.7,99.3,8.8,99.3,8.9
			z M99.9,13.7l-1.3-3.3l-1.4,3.3H99.9z"/>
		<path class="st0" d="M112.7,9.3c0.6-0.5,1.4-0.8,2.3-0.8c0.7,0,1.4,0.2,2,0.6c0.4,0.3,0.7,0.6,0.9,1c0.1,0.3,0.1,0.5,0,0.7
			c-0.1,0.2-0.4,0.3-0.7,0.3c-0.2,0-0.4-0.2-0.5-0.5c-0.1-0.2-0.3-0.4-0.5-0.5c-0.3-0.2-0.7-0.3-1.2-0.3c-0.6,0-1.1,0.1-1.4,0.4
			c-0.3,0.2-0.4,0.5-0.4,0.7c0,0.3,0.1,0.6,0.4,0.8c0.3,0.2,0.9,0.5,1.8,0.6c1.1,0.2,1.9,0.6,2.3,1c0.4,0.4,0.6,0.9,0.6,1.6
			c0,0.7-0.3,1.3-0.9,1.7c-0.6,0.4-1.4,0.6-2.4,0.6c-0.7,0-1.5-0.2-2.2-0.6c-0.6-0.4-1-0.8-1.3-1.4c-0.1-0.3-0.1-0.6,0-0.8
			c0.2-0.3,0.4-0.4,0.7-0.3c0.2,0,0.4,0.2,0.5,0.4c0.2,0.4,0.5,0.7,0.9,1c0.4,0.2,0.8,0.3,1.4,0.4c0.7,0,1.2-0.1,1.5-0.3
			c0.3-0.2,0.5-0.4,0.5-0.8c0-0.4-0.1-0.6-0.4-0.8c-0.3-0.3-0.9-0.5-1.9-0.7c-0.9-0.2-1.6-0.6-2.2-1.1c-0.4-0.4-0.6-0.8-0.6-1.4
			C112,10.3,112.2,9.8,112.7,9.3z"/>
	</g>
	<g>
		<path class="st0" d="M50.6,27.8h3.9v-0.5h-0.8c0,0,0,0,0,0.1l-0.8,0.2c0-0.2-0.1-0.4-0.1-0.6c-0.7,0.1-1.3,0.2-1.9,0.4l-0.4-0.9
			c0.3-0.1,0.6-0.3,0.7-0.5c0.2-0.3,0.4-0.6,0.6-0.9c-0.4,0.1-0.7,0.1-1.1,0.2l-0.3-0.9c0.3-0.1,0.5-0.2,0.6-0.4
			c0.3-0.5,0.6-1,0.8-1.6l0.9,0.2c-0.3,0.6-0.6,1.2-0.9,1.7c0.2,0,0.3,0,0.5,0c0.2-0.4,0.4-0.7,0.6-1.1l0.6,0.2v-0.4h0.9l0.1-0.8
			l1,0.1l-0.1,0.7h1v1.3c0.1-0.1,0.2-0.2,0.3-0.3c0.3-0.5,0.5-1.1,0.8-1.7l0.9,0.1c-0.2,0.6-0.5,1.2-0.8,1.8c0.2,0,0.4,0,0.5-0.1
			c0.2-0.4,0.4-0.8,0.6-1.2l0.8,0.3c-0.6,1.1-1.2,2.1-1.9,3c0.2,0,0.5-0.1,0.8-0.1c-0.1-0.2-0.1-0.4-0.2-0.7l0.7-0.2
			c0.3,0.8,0.5,1.5,0.6,2.1l-0.8,0.2c0-0.2-0.1-0.4-0.1-0.7c-0.8,0.1-1.4,0.2-2.1,0.3L56.5,27v0.3h-0.8v0.5h3.8v1h-3
			c1.1,0.5,2.1,0.9,3.1,1.1L59.2,31c-1.3-0.4-2.5-1-3.5-1.7v1.8h-1.2v-1.8c-1.1,0.8-2.3,1.4-3.5,1.7l-0.5-1.1
			c1.2-0.2,2.3-0.6,3.3-1.2h-3.1V27.8z M53.6,23.7c-0.5,0.9-1,1.7-1.6,2.5c0.2,0,0.4-0.1,0.6-0.1c0-0.2-0.1-0.3-0.1-0.5l0.7-0.2
			c0.2,0.6,0.4,1.1,0.5,1.6V23.7z M54.6,24.6h1v-0.9h-1V24.6z M55.5,25.4h-1v0.9h1V25.4z M56.5,25.1v1.2c0.2-0.1,0.3-0.2,0.5-0.4
			c0.2-0.3,0.4-0.6,0.6-0.9C57.2,25,56.8,25,56.5,25.1L56.5,25.1z"/>
		<path class="st0" d="M69.2,26.8c-0.4-0.4-0.9-0.8-1.5-1.3l0.8-0.8c0.7,0.6,1.2,1.1,1.5,1.3L69.2,26.8z M67.9,30.7
			c0.4-1,0.7-2.1,1.1-3.4l1.1,0.4c-0.5,1.7-0.8,2.8-1.1,3.4L67.9,30.7z M69.6,24.3c-0.4-0.4-0.9-0.9-1.5-1.3l0.8-0.8
			c0.8,0.6,1.3,1.1,1.6,1.3L69.6,24.3z M70.6,22.6c1.9-0.1,3.8-0.2,5.5-0.5l0.5,1c-0.8,0.2-1.6,0.3-2.5,0.4v1.2H77v1.1h-2.8V27h2.3
			v4.2h-1.1v-0.4H72v0.4h-1.1V27H73v-1.1h-2.7v-1.1H73v-1.1c-0.7,0-1.4,0.1-2.1,0.1L70.6,22.6z M75.3,28H72v1.6h3.4V28z"/>
		<path class="st0" d="M88.4,22.5v8.2h-1v-0.5h-1v0.7h-1v-8.4H88.4z M86.4,23.5v1.2h1v-1.2H86.4z M86.4,25.8V27h1v-1.2H86.4z
			 M86.4,28v1.2h1V28H86.4z M89.1,22.4h4.5V27h-1.8c0.1,0.4,0.3,0.8,0.5,1.2c0.4-0.3,0.8-0.6,1.3-1l0.7,0.9c-0.5,0.4-0.9,0.7-1.4,1
			c0.4,0.4,0.9,0.7,1.5,1.1l-0.8,1c-0.9-0.6-1.5-1.2-1.9-1.7C91.3,28.7,91,28,90.8,27h-0.6v2.7l1.3-0.3l0.1,1
			c-1.1,0.2-2,0.4-2.5,0.6l-0.3-1c0.2-0.1,0.2-0.2,0.2-0.4V22.4z M90.2,24.2h2.2v-0.8h-2.2V24.2z M92.5,25.2h-2.2V26h2.2V25.2z"/>
		<path class="st0" d="M111.5,25.2h-5.7v-0.9l-0.5,0.4v0.6h-0.8v0.7h1.1v1h-1.1v2.5c0.4-0.1,0.7-0.1,1-0.2l0.1,0.6
			c0.5-0.1,0.9-0.3,1.1-0.5c0.2-0.2,0.3-0.4,0.4-0.7h-1v-3.3h4.8v3.3h-1.2v0.9c0,0.1,0.1,0.2,0.2,0.2h0.5c0.1,0,0.2-0.1,0.2-0.2
			v-0.5l0.9,0.2v0.8c0,0.5-0.3,0.8-0.8,0.8h-1.2c-0.5,0-0.8-0.3-0.8-0.8v-1.3h-0.6c-0.1,0.6-0.3,1-0.6,1.3c-0.4,0.4-0.9,0.7-1.6,0.9
			l-0.3-0.7c-0.9,0.2-2,0.4-3.1,0.5l-0.1-1.1c0.4,0,0.8-0.1,1.3-0.1v-2.6h-1.2v-1h1.2v-0.7h-0.6V25c-0.1,0.1-0.2,0.2-0.3,0.3
			l-0.5-0.9c0.6-0.7,1.2-1.5,1.6-2.4l0.9,0.2c-0.1,0.1-0.1,0.2-0.2,0.3c0.5,0.5,1,1.1,1.4,1.6l-0.2,0.1h1.2l-0.2-0.7h-0.8v-0.9h2
			c0-0.2-0.1-0.4-0.1-0.6l1.1-0.1c0.1,0.2,0.1,0.4,0.1,0.6h2.1v0.9h-0.8l-0.2,0.7h1.3V25.2z M102.8,29.3c-0.1-0.5-0.1-1.1-0.3-1.8
			l0.7-0.1c0.2,0.8,0.3,1.4,0.3,1.8L102.8,29.3z M103.6,24.4h1.4c-0.2-0.3-0.5-0.7-0.8-1C104.1,23.7,103.8,24,103.6,24.4z
			 M104.8,29.1c0.1-0.5,0.3-1,0.4-1.6l0.6,0.2c-0.2,0.8-0.3,1.4-0.4,1.7L104.8,29.1z M107.3,26.9h2.6v-0.5h-2.6V26.9z M109.9,27.7
			h-2.6v0.5h2.6V27.7z M109.4,23.6H108l0.2,0.7h1L109.4,23.6z"/>
	</g>
</g>
</svg>
